<svg xmlns="http://www.w3.org/2000/svg" width="40" height="80" viewBox="0 0 40 80">
  <!-- 树桩障碍物 -->
  <!-- 树桩主体 -->
  <rect x="4" y="20" width="32" height="55" rx="5" fill="#8B5E3C"/>
  <rect x="6" y="22" width="28" height="51" rx="4" fill="#A0714F"/>
  <!-- 树桩年轮 -->
  <ellipse cx="20" cy="20" rx="18" ry="8" fill="#A0714F"/>
  <ellipse cx="20" cy="20" rx="14" ry="6" fill="#8B5E3C"/>
  <ellipse cx="20" cy="20" rx="9" ry="4" fill="#A0714F"/>
  <ellipse cx="20" cy="20" rx="4" ry="2" fill="#6B4423"/>
  <!-- 纹路线条 -->
  <line x1="8" y1="35" x2="32" y2="35" stroke="#6B4423" stroke-width="1" opacity="0.5"/>
  <line x1="8" y1="48" x2="32" y2="48" stroke="#6B4423" stroke-width="1" opacity="0.5"/>
  <line x1="8" y1="60" x2="32" y2="60" stroke="#6B4423" stroke-width="1" opacity="0.5"/>
  <!-- 顶部绿叶 -->
  <ellipse cx="12" cy="16" rx="10" ry="8" fill="#52b788"/>
  <ellipse cx="28" cy="16" rx="10" ry="8" fill="#52b788"/>
  <ellipse cx="20" cy="12" rx="12" ry="10" fill="#74c69d"/>
  <!-- 小蘑菇 -->
  <rect x="15" y="56" width="4" height="6" fill="#f0f0f0"/>
  <ellipse cx="17" cy="56" rx="5" ry="3" fill="#e76f51"/>
  <circle cx="15" cy="55" r="1" fill="white" opacity="0.6"/>
  <circle cx="19" cy="54" r="0.8" fill="white" opacity="0.6"/>
</svg>